# xmcd
#
# Track frame offsets: 
#        151
#        22696
#        43687
#        63604
#        81373
#        103372
#        126551
#        150110
#        169727
#        192022
#        213691
#        229954
#        247245
#        263272
#        284767
#        308210
#
# Disc length: 4366 seconds
#
# Revision: 0
# Processed by: cddbd v1.5.2PL0 Copyright (c) Steve Scherf et al.
# Submitted via: ExactAudioCopy v0.99pb5
#
DISCID=e7110c10
DTITLE=古璇 - 璇曲蔓地3•原點
DYEAR=2004
DGENRE=Folk
TTITLE0=愛的箴言
TTITLE1=原點
TTITLE2=城市足印
TTITLE3=跟著感覺走
TTITLE4=梅花三弄
TTITLE5=牽手
TTITLE6=女人花
TTITLE7=今宵多珍重
TTITLE8=你怎麼捨得我難過
TTITLE9=城裡的月光
TTITLE10=思念
TTITLE11=把根留住
TTITLE12=長亭外
TTITLE13=懷念戰友
TTITLE14=秋水伊人
TTITLE15=鼓浪嶼之波
EXTD=
EXTT0=
EXTT1=
EXTT2=
EXTT3=
EXTT4=
EXTT5=
EXTT6=
EXTT7=
EXTT8=
EXTT9=
EXTT10=
EXTT11=
EXTT12=
EXTT13=
EXTT14=
EXTT15=
PLAYORDER=
